<svg xmlns="http://www.w3.org/2000/svg" viewBox="0 0 128 128" width="128" height="128">
  <!-- Form background -->
  <rect x="12" y="8" width="104" height="112" rx="8" fill="#eff6ff" stroke="#2563eb" stroke-width="4"/>

  <!-- Form header bar -->
  <rect x="12" y="8" width="104" height="30" rx="8" fill="#2563eb"/>
  <rect x="12" y="28" width="104" height="10" fill="#2563eb"/>

  <!-- Header decorative circles -->
  <circle cx="28" cy="23" r="5" fill="#93c5fd"/>
  <circle cx="44" cy="23" r="5" fill="#93c5fd"/>
  <circle cx="60" cy="23" r="5" fill="#93c5fd"/>

  <!-- Form field lines -->
  <rect x="24" y="52" width="80" height="10" rx="3" fill="#bfdbfe"/>
  <rect x="24" y="70" width="80" height="10" rx="3" fill="#bfdbfe"/>
  <rect x="24" y="88" width="52" height="10" rx="3" fill="#bfdbfe"/>

  <!-- Sprout stem -->
  <line x1="84" y1="108" x2="84" y2="120" stroke="#15803d" stroke-width="5" stroke-linecap="round"/>

  <!-- Sprout left leaf -->
  <path d="M84 114 C76 106 60 110 62 120 C70 114 79 114 84 114" fill="#16a34a"/>

  <!-- Sprout right leaf -->
  <path d="M84 114 C92 106 108 110 106 120 C98 114 89 114 84 114" fill="#22c55e"/>

  <!-- Seed / soil mound -->
  <ellipse cx="84" cy="122" rx="13" ry="6" fill="#92400e"/>
</svg>
